<mxfile host="app.diagrams.net" modified="2023-05-16T15:17:22.009Z" agent="Mozilla/5.0 (Macintosh; Intel Mac OS X 10_15_7) AppleWebKit/537.36 (KHTML, like Gecko) Chrome/112.0.0.0 Safari/537.36" version="21.3.2" etag="HWWWDT6rgBqLYOjYkRv8" type="github">
  <diagram name="Page-1" id="z3esPfivO7St0ZQJV3u3">
    <mxGraphModel>
      <root>
        <mxCell id="0" />
        <mxCell id="1" parent="0" />
      </root>
    </mxGraphModel>
  </diagram>
</mxfile>
